<?xml version="1.0" standalone="no"?>
<!DOCTYPE svg PUBLIC "-//W3C//DTD SVG 20010904//EN"
 "http://www.w3.org/TR/2001/REC-SVG-20010904/DTD/svg10.dtd">
<svg version="1.0" xmlns="http://www.w3.org/2000/svg"
 width="1055.000000pt" height="1055.000000pt" viewBox="0 0 1055.000000 1055.000000"
 preserveAspectRatio="xMidYMid meet">
<metadata>
Created by potrace 1.11, written by Peter Selinger 2001-2013
</metadata>
<g transform="translate(0.000000,1055.000000) scale(0.100000,-0.100000)"
fill="#000000" stroke="none">
<path d="M5885 10153 c-317 -26 -527 -79 -735 -183 -189 -95 -329 -215 -505
-430 -139 -170 -179 -205 -246 -219 -30 -5 -169 -20 -309 -31 -631 -51 -1027
-144 -1370 -321 -318 -163 -577 -410 -696 -662 -66 -143 -85 -232 -93 -438 -5
-143 -9 -190 -21 -204 -8 -10 -60 -56 -115 -103 -284 -242 -450 -443 -565
-685 -139 -293 -192 -597 -141 -799 80 -313 371 -544 834 -663 207 -53 335
-69 552 -70 220 0 279 12 370 76 52 36 55 37 55 16 0 -12 -21 -54 -47 -92
-141 -211 -250 -518 -269 -762 l-7 -82 -71 -42 c-39 -23 -134 -84 -210 -136
-1035 -701 -1425 -1643 -1010 -2443 227 -438 718 -798 1400 -1026 518 -173
1178 -286 1834 -313 525 -23 993 36 1725 214 383 94 705 217 1050 402 710 382
1281 852 1571 1293 138 210 245 476 284 704 25 146 27 378 5 516 -92 563 -572
1049 -1325 1339 l-155 60 -2 38 c-24 355 -109 626 -267 846 -50 69 -56 84 -56
127 0 38 4 50 18 54 9 2 90 25 179 51 430 121 740 272 908 439 211 212 434
725 490 1132 21 148 16 397 -9 489 -22 78 -74 188 -127 267 -93 139 -300 313
-481 404 -53 27 -69 40 -74 62 -36 160 -84 279 -165 408 -69 108 -171 236
-240 298 -267 242 -829 417 -1494 466 -130 9 -376 11 -470 3z"/>
</g>
</svg>
